<svg width="151" height="33" viewBox="0 0 151 33" fill="none" xmlns="http://www.w3.org/2000/svg">
<path fill-rule="evenodd" clip-rule="evenodd" d="M5.15418 28.5468L3.28278 29.6863C1.84003 30.5541 0 29.5191 0 27.8359V5.17001C0 3.47634 1.84003 2.44133 3.28278 3.31952L9.53471 7.11459C9.25243 7.06231 8.9597 7.03095 8.65651 7.03095C5.68737 7.03095 3.27233 9.37281 3.12596 12.3001H5.48873C5.83374 12.3001 6.17874 12.5824 6.19965 12.9379C6.22056 13.3247 5.90692 13.6488 5.52009 13.6488H3.12596V14.9661H5.52009C5.90692 14.9661 6.22056 15.2797 6.19965 15.677C6.17874 16.0429 5.85465 16.3147 5.48873 16.3147H3.12596V17.6216H5.48873C5.83374 17.6216 6.17874 17.9143 6.19965 18.2698C6.22056 18.6566 5.90692 18.9807 5.52009 18.9807H3.12596C3.27233 21.908 5.68737 24.2394 8.65651 24.2394C8.75061 24.2394 8.8447 24.229 8.94925 24.229L7.83059 25.4313V26.9263L7.7365 26.9786H6.79557C5.91738 26.9786 5.196 27.679 5.15418 28.5468ZM21.9654 18.3534L9.48244 25.9226V24.1767C12.0543 23.7899 14.0512 21.6257 14.1766 18.9807H11.7825C11.3957 18.9807 11.0925 18.6566 11.1029 18.2698C11.1238 17.9143 11.4688 17.6216 11.8243 17.6216H14.1871V16.3147H11.7825C11.3957 16.3147 11.0925 15.9907 11.1029 15.6038C11.1238 15.2379 11.4584 14.9661 11.8243 14.9661H14.1871V13.6488H11.8243C11.4688 13.6488 11.1238 13.3665 11.1029 13.0111C11.0925 12.6242 11.3957 12.3001 11.7825 12.3001H14.1766C14.1243 11.1606 13.7271 10.1151 13.0893 9.25781L21.9654 14.6524C23.3559 15.4888 23.3559 17.5066 21.9654 18.3534Z" fill="url(#paint0_linear_6_296)"/>
<path style="mix-blend-mode:multiply" fill-rule="evenodd" clip-rule="evenodd" d="M8.94925 24.229L7.83059 25.4313V26.9263L7.7365 26.9786H6.79557C5.91738 26.9786 5.196 27.679 5.15418 28.5468L3.28278 29.6863C1.84003 30.5541 0 29.5191 0 27.8359V5.17001C0 3.47634 1.84003 2.44133 3.28278 3.31952L9.53471 7.11459C9.25243 7.06231 8.9597 7.03095 8.65651 7.03095C5.68737 7.03095 3.27233 9.37281 3.12596 12.3001H5.48873C5.83374 12.3001 6.17874 12.5824 6.19965 12.9379C6.22056 13.3247 5.90692 13.6488 5.52009 13.6488H3.12596V14.9661H5.52009C5.90692 14.9661 6.22056 15.2797 6.19965 15.677C6.17874 16.0429 5.85465 16.3147 5.48873 16.3147H3.12596V17.6216H5.48873C5.83374 17.6216 6.17874 17.9143 6.19965 18.2698C6.22056 18.6566 5.90692 18.9807 5.52009 18.9807H3.12596C3.27233 21.908 5.68737 24.2394 8.65651 24.2394C8.75061 24.2394 8.8447 24.229 8.94925 24.229ZM16.163 21.8662L9.48244 25.9226V24.1767C12.0543 23.7899 14.0512 21.6257 14.1766 18.9807H11.7825C11.3957 18.9807 11.0925 18.6566 11.1029 18.2698C11.1238 17.9143 11.4688 17.6216 11.8243 17.6216H14.1871V16.3147H11.7825C11.3957 16.3147 11.0925 15.9907 11.1029 15.6038C11.1238 15.2379 11.4584 14.9661 11.8243 14.9661H14.1871V13.8788C14.6784 15.0497 15.0966 16.2625 15.4312 17.517C15.8285 19.0225 16.0689 20.4757 16.163 21.8662ZM11.7825 12.3001H13.4552C13.6783 12.7392 13.8874 13.1888 14.0825 13.6488H11.8243C11.4688 13.6488 11.1238 13.3665 11.1029 13.0111C11.0925 12.6242 11.3957 12.3001 11.7825 12.3001Z" fill="url(#paint1_linear_6_296)"/>
<path style="mix-blend-mode:screen" fill-rule="evenodd" clip-rule="evenodd" d="M3.12596 14.4956V13.6488H5.52009C5.90692 13.6488 6.22056 13.3247 6.19965 12.9379C6.17874 12.5824 5.83374 12.3001 5.48873 12.3001H3.12596C3.27233 9.37281 5.68737 7.03095 8.65651 7.03095C8.9597 7.03095 9.25243 7.06231 9.53471 7.11459L3.28278 3.31952C1.84003 2.44133 0 3.47634 0 5.17001V11.9238C0.920016 12.8542 1.96549 13.7115 3.12596 14.4956ZM6.19965 15.677C6.22056 15.2797 5.90692 14.9661 5.52009 14.9661H3.84734C4.52341 15.3843 5.23085 15.7746 5.96965 16.137C6.10556 16.022 6.1892 15.8547 6.19965 15.677ZM21.9654 14.6524L13.0893 9.25781C13.7271 10.1151 14.1243 11.1606 14.1766 12.3001H11.7825C11.3957 12.3001 11.0925 12.6242 11.1029 13.0111C11.1238 13.3665 11.4688 13.6488 11.8243 13.6488H14.1871V14.9661H11.8243C11.4584 14.9661 11.1238 15.2379 11.1029 15.6038C11.0925 15.9907 11.3957 16.3147 11.7825 16.3147H14.1871V17.6216H11.8243C11.5525 17.6216 11.3016 17.7889 11.1761 18.0189C12.2007 18.2698 13.2566 18.4684 14.3334 18.5939C17.083 18.9284 19.6862 18.803 22.0386 18.3011C23.3454 17.4334 23.3245 15.4784 21.9654 14.6524Z" fill="url(#paint2_linear_6_296)"/>
<path style="mix-blend-mode:screen" fill-rule="evenodd" clip-rule="evenodd" d="M21.9654 18.3534L9.48244 25.9226V24.1767C12.0543 23.7898 14.0512 21.6257 14.1766 18.9807H11.7825C11.3957 18.9807 11.0925 18.6566 11.1029 18.2697C11.1238 17.9143 11.4688 17.6215 11.8243 17.6215H14.1871V16.3147H11.7825C11.3957 16.3147 11.0925 15.9906 11.1029 15.6038C11.1238 15.2379 11.4584 14.966 11.8243 14.966H14.1871V13.6487H11.8243C11.4688 13.6487 11.1238 13.3665 11.1029 13.011C11.0925 12.6242 11.3957 12.3001 11.7825 12.3001H14.1766C14.1348 11.5055 13.9257 10.7528 13.5911 10.0837C13.8351 10.0558 14.079 10.0314 14.323 10.0105L21.9654 14.6524C23.3559 15.4888 23.3559 17.5065 21.9654 18.3534ZM0 27.8358V19.2943C0.836378 17.7156 1.96549 16.2415 3.3246 14.966H5.52009C5.90692 14.966 6.22056 15.2797 6.19965 15.677C6.17874 16.0429 5.85465 16.3147 5.48873 16.3147H3.12596V17.6215H5.48873C5.83374 17.6215 6.17874 17.9143 6.19965 18.2697C6.22056 18.6566 5.90692 18.9807 5.52009 18.9807H3.12596C3.27233 21.908 5.68737 24.2394 8.65651 24.2394C8.75061 24.2394 8.8447 24.2289 8.94925 24.2289L7.83059 25.4312V26.9263L7.7365 26.9785H6.79557C5.91738 26.9785 5.196 27.679 5.15418 28.5467L3.28278 29.6863C1.84003 30.554 0 29.519 0 27.8358ZM4.86145 13.6487C5.27964 13.3351 5.71177 13.0389 6.15783 12.7601C6.17874 12.8124 6.19965 12.8751 6.19965 12.9378C6.22056 13.3246 5.90692 13.6487 5.52009 13.6487H4.86145Z" fill="url(#paint3_linear_6_296)"/>
<path d="M30.6883 26V8.72H37.9843C38.1523 8.72 38.3763 8.728 38.6563 8.744C38.9443 8.752 39.2003 8.776 39.4243 8.816C40.4563 8.976 41.3003 9.316 41.9563 9.836C42.6203 10.356 43.1083 11.012 43.4203 11.804C43.7323 12.588 43.8883 13.464 43.8883 14.432C43.8883 15.4 43.7283 16.28 43.4083 17.072C43.0963 17.856 42.6083 18.508 41.9443 19.028C41.2883 19.548 40.4483 19.888 39.4243 20.048C39.2003 20.08 38.9443 20.104 38.6563 20.12C38.3683 20.136 38.1443 20.144 37.9843 20.144H33.9523V26H30.6883ZM33.9523 17.096H37.8403C38.0083 17.096 38.1923 17.088 38.3923 17.072C38.5923 17.056 38.7763 17.024 38.9443 16.976C39.3843 16.856 39.7243 16.656 39.9643 16.376C40.2043 16.088 40.3683 15.772 40.4563 15.428C40.5523 15.076 40.6003 14.744 40.6003 14.432C40.6003 14.12 40.5523 13.792 40.4563 13.448C40.3683 13.096 40.2043 12.78 39.9643 12.5C39.7243 12.212 39.3843 12.008 38.9443 11.888C38.7763 11.84 38.5923 11.808 38.3923 11.792C38.1923 11.776 38.0083 11.768 37.8403 11.768H33.9523V17.096ZM50.6953 26.36C49.3913 26.36 48.2473 26.068 47.2633 25.484C46.2793 24.9 45.5113 24.096 44.9593 23.072C44.4153 22.04 44.1433 20.856 44.1433 19.52C44.1433 18.168 44.4233 16.98 44.9833 15.956C45.5433 14.924 46.3153 14.12 47.2993 13.544C48.2833 12.968 49.4153 12.68 50.6953 12.68C51.9993 12.68 53.1433 12.972 54.1273 13.556C55.1193 14.14 55.8913 14.948 56.4433 15.98C56.9953 17.004 57.2713 18.184 57.2713 19.52C57.2713 20.864 56.9913 22.052 56.4313 23.084C55.8793 24.108 55.1073 24.912 54.1153 25.496C53.1313 26.072 51.9913 26.36 50.6953 26.36ZM50.6953 23.312C51.7433 23.312 52.5233 22.96 53.0353 22.256C53.5553 21.544 53.8153 20.632 53.8153 19.52C53.8153 18.368 53.5513 17.448 53.0233 16.76C52.5033 16.072 51.7273 15.728 50.6953 15.728C49.9833 15.728 49.3993 15.888 48.9433 16.208C48.4873 16.528 48.1473 16.972 47.9233 17.54C47.7073 18.108 47.5993 18.768 47.5993 19.52C47.5993 20.68 47.8593 21.604 48.3793 22.292C48.9073 22.972 49.6793 23.312 50.6953 23.312ZM63.9662 26.36C62.7742 26.36 61.7302 26.06 60.8342 25.46C59.9382 24.86 59.2382 24.044 58.7342 23.012C58.2382 21.98 57.9902 20.816 57.9902 19.52C57.9902 18.2 58.2422 17.028 58.7462 16.004C59.2582 14.972 59.9742 14.16 60.8942 13.568C61.8142 12.976 62.8942 12.68 64.1342 12.68C65.3662 12.68 66.4022 12.98 67.2422 13.58C68.0822 14.18 68.7182 14.996 69.1502 16.028C69.5822 17.06 69.7982 18.224 69.7982 19.52C69.7982 20.816 69.5782 21.98 69.1382 23.012C68.7062 24.044 68.0582 24.86 67.1942 25.46C66.3302 26.06 65.2542 26.36 63.9662 26.36ZM64.4942 23.456C65.2222 23.456 65.8022 23.292 66.2342 22.964C66.6742 22.636 66.9902 22.176 67.1822 21.584C67.3742 20.992 67.4702 20.304 67.4702 19.52C67.4702 18.736 67.3742 18.048 67.1822 17.456C66.9902 16.864 66.6822 16.404 66.2582 16.076C65.8422 15.748 65.2942 15.584 64.6142 15.584C63.8862 15.584 63.2862 15.764 62.8142 16.124C62.3502 16.476 62.0062 16.952 61.7822 17.552C61.5582 18.144 61.4462 18.8 61.4462 19.52C61.4462 20.248 61.5542 20.912 61.7702 21.512C61.9862 22.104 62.3182 22.576 62.7662 22.928C63.2142 23.28 63.7902 23.456 64.4942 23.456ZM67.4702 26V17.12H67.0622V8.72H70.3502V26H67.4702ZM79.0382 26.36C77.7582 26.36 76.6022 26.136 75.5702 25.688C74.5462 25.232 73.7022 24.584 73.0382 23.744C72.3822 22.896 71.9662 21.888 71.7902 20.72L75.1982 20.216C75.4382 21.208 75.9342 21.972 76.6862 22.508C77.4382 23.044 78.2942 23.312 79.2542 23.312C79.7902 23.312 80.3102 23.228 80.8142 23.06C81.3182 22.892 81.7302 22.644 82.0502 22.316C82.3782 21.988 82.5422 21.584 82.5422 21.104C82.5422 20.928 82.5142 20.76 82.4582 20.6C82.4102 20.432 82.3262 20.276 82.2062 20.132C82.0862 19.988 81.9142 19.852 81.6902 19.724C81.4742 19.596 81.1982 19.48 80.8622 19.376L76.3742 18.056C76.0382 17.96 75.6462 17.824 75.1982 17.648C74.7582 17.472 74.3302 17.22 73.9142 16.892C73.4982 16.564 73.1502 16.132 72.8702 15.596C72.5982 15.052 72.4622 14.368 72.4622 13.544C72.4622 12.384 72.7542 11.42 73.3382 10.652C73.9222 9.884 74.7022 9.312 75.6782 8.936C76.6542 8.56 77.7342 8.376 78.9182 8.384C80.1102 8.4 81.1742 8.604 82.1102 8.996C83.0462 9.388 83.8302 9.96 84.4622 10.712C85.0942 11.456 85.5502 12.368 85.8302 13.448L82.3022 14.048C82.1742 13.488 81.9382 13.016 81.5942 12.632C81.2502 12.248 80.8382 11.956 80.3582 11.756C79.8862 11.556 79.3902 11.448 78.8702 11.432C78.3582 11.416 77.8742 11.488 77.4182 11.648C76.9702 11.8 76.6022 12.024 76.3142 12.32C76.0342 12.616 75.8942 12.968 75.8942 13.376C75.8942 13.752 76.0102 14.06 76.2422 14.3C76.4742 14.532 76.7662 14.72 77.1182 14.864C77.4702 15.008 77.8302 15.128 78.1982 15.224L81.1982 16.04C81.6462 16.16 82.1422 16.32 82.6862 16.52C83.2302 16.712 83.7502 16.984 84.2462 17.336C84.7502 17.68 85.1622 18.136 85.4822 18.704C85.8102 19.272 85.9742 19.992 85.9742 20.864C85.9742 21.792 85.7782 22.604 85.3862 23.3C85.0022 23.988 84.4822 24.56 83.8262 25.016C83.1702 25.464 82.4262 25.8 81.5942 26.024C80.7702 26.248 79.9182 26.36 79.0382 26.36ZM93.7717 26.36C92.4837 26.36 91.4077 26.06 90.5437 25.46C89.6797 24.86 89.0277 24.044 88.5877 23.012C88.1557 21.98 87.9397 20.816 87.9397 19.52C87.9397 18.224 88.1557 17.06 88.5877 16.028C89.0197 14.996 89.6557 14.18 90.4957 13.58C91.3357 12.98 92.3717 12.68 93.6037 12.68C94.8437 12.68 95.9237 12.976 96.8437 13.568C97.7637 14.16 98.4757 14.972 98.9797 16.004C99.4917 17.028 99.7477 18.2 99.7477 19.52C99.7477 20.816 99.4957 21.98 98.9917 23.012C98.4957 24.044 97.7997 24.86 96.9037 25.46C96.0077 26.06 94.9637 26.36 93.7717 26.36ZM87.3877 31.76V13.04H90.2677V21.92H90.6757V31.76H87.3877ZM93.2437 23.456C93.9477 23.456 94.5237 23.28 94.9717 22.928C95.4197 22.576 95.7517 22.104 95.9677 21.512C96.1837 20.912 96.2917 20.248 96.2917 19.52C96.2917 18.8 96.1797 18.144 95.9557 17.552C95.7317 16.952 95.3837 16.476 94.9117 16.124C94.4477 15.764 93.8517 15.584 93.1237 15.584C92.4437 15.584 91.8917 15.748 91.4677 16.076C91.0517 16.404 90.7477 16.864 90.5557 17.456C90.3637 18.048 90.2677 18.736 90.2677 19.52C90.2677 20.304 90.3637 20.992 90.5557 21.584C90.7477 22.176 91.0597 22.636 91.4917 22.964C91.9317 23.292 92.5157 23.456 93.2437 23.456ZM110.02 26V19.88C110.02 19.584 110.004 19.208 109.972 18.752C109.94 18.288 109.84 17.824 109.672 17.36C109.504 16.896 109.228 16.508 108.844 16.196C108.468 15.884 107.932 15.728 107.236 15.728C106.956 15.728 106.656 15.772 106.336 15.86C106.016 15.948 105.716 16.12 105.436 16.376C105.156 16.624 104.924 16.992 104.74 17.48C104.564 17.968 104.476 18.616 104.476 19.424L102.604 18.536C102.604 17.512 102.812 16.552 103.228 15.656C103.644 14.76 104.268 14.036 105.1 13.484C105.94 12.932 106.996 12.656 108.268 12.656C109.284 12.656 110.112 12.828 110.752 13.172C111.392 13.516 111.888 13.952 112.24 14.48C112.6 15.008 112.856 15.56 113.008 16.136C113.16 16.704 113.252 17.224 113.284 17.696C113.316 18.168 113.332 18.512 113.332 18.728V26H110.02ZM101.164 26V8.72H104.068V17.6H104.476V26H101.164ZM121.27 26.36C119.942 26.36 118.77 26.076 117.754 25.508C116.746 24.932 115.954 24.144 115.378 23.144C114.81 22.136 114.526 20.984 114.526 19.688C114.526 18.272 114.806 17.04 115.366 15.992C115.926 14.944 116.698 14.132 117.682 13.556C118.666 12.972 119.798 12.68 121.078 12.68C122.438 12.68 123.594 13 124.546 13.64C125.498 14.28 126.202 15.18 126.658 16.34C127.114 17.5 127.274 18.864 127.138 20.432H123.91V19.232C123.91 17.912 123.698 16.964 123.274 16.388C122.858 15.804 122.174 15.512 121.222 15.512C120.11 15.512 119.29 15.852 118.762 16.532C118.242 17.204 117.982 18.2 117.982 19.52C117.982 20.728 118.242 21.664 118.762 22.328C119.29 22.984 120.062 23.312 121.078 23.312C121.718 23.312 122.266 23.172 122.722 22.892C123.178 22.612 123.526 22.208 123.766 21.68L127.03 22.616C126.542 23.8 125.77 24.72 124.714 25.376C123.666 26.032 122.518 26.36 121.27 26.36ZM116.974 20.432V18.008H125.566V20.432H116.974ZM128.648 26V13.04H131.528V16.208L131.216 15.8C131.384 15.352 131.608 14.944 131.888 14.576C132.168 14.208 132.512 13.904 132.92 13.664C133.232 13.472 133.572 13.324 133.94 13.22C134.308 13.108 134.688 13.04 135.08 13.016C135.472 12.984 135.864 12.992 136.256 13.04V16.088C135.896 15.976 135.476 15.94 134.996 15.98C134.524 16.012 134.096 16.12 133.712 16.304C133.328 16.48 133.004 16.716 132.74 17.012C132.476 17.3 132.276 17.644 132.14 18.044C132.004 18.436 131.936 18.88 131.936 19.376V26H128.648ZM143.128 26.36C141.8 26.36 140.628 26.076 139.612 25.508C138.604 24.932 137.812 24.144 137.236 23.144C136.668 22.136 136.384 20.984 136.384 19.688C136.384 18.272 136.664 17.04 137.224 15.992C137.784 14.944 138.556 14.132 139.54 13.556C140.524 12.972 141.656 12.68 142.936 12.68C144.296 12.68 145.452 13 146.404 13.64C147.356 14.28 148.06 15.18 148.516 16.34C148.972 17.5 149.132 18.864 148.996 20.432H145.768V19.232C145.768 17.912 145.556 16.964 145.132 16.388C144.716 15.804 144.032 15.512 143.08 15.512C141.968 15.512 141.148 15.852 140.62 16.532C140.1 17.204 139.84 18.2 139.84 19.52C139.84 20.728 140.1 21.664 140.62 22.328C141.148 22.984 141.92 23.312 142.936 23.312C143.576 23.312 144.124 23.172 144.58 22.892C145.036 22.612 145.384 22.208 145.624 21.68L148.888 22.616C148.4 23.8 147.628 24.72 146.572 25.376C145.524 26.032 144.376 26.36 143.128 26.36ZM138.832 20.432V18.008H147.424V20.432H138.832Z" fill="white"/>
<defs>
<linearGradient id="paint0_linear_6_296" x1="16.5285" y1="-7.8157" x2="45.68" y2="21.3358" gradientUnits="userSpaceOnUse">
<stop stop-color="#FD6D6D"/>
<stop offset="1" stop-color="#F97535"/>
</linearGradient>
<linearGradient id="paint1_linear_6_296" x1="-16.282" y1="4.72432" x2="0.389741" y2="-11.0819" gradientUnits="userSpaceOnUse">
<stop stop-color="white"/>
<stop offset="0.987" stop-color="#D937BE"/>
<stop offset="1" stop-color="#D837BF"/>
</linearGradient>
<linearGradient id="paint2_linear_6_296" x1="14.4576" y1="-4.68138" x2="22.8076" y2="21.4645" gradientUnits="userSpaceOnUse">
<stop stop-color="#FD6D6D"/>
<stop offset="0.5" stop-color="#71381D"/>
<stop offset="1" stop-color="#F97535"/>
</linearGradient>
<linearGradient id="paint3_linear_6_296" x1="6.15281" y1="-7.21366" x2="25.248" y2="16.2305" gradientUnits="userSpaceOnUse">
<stop stop-color="#FD6D6D"/>
<stop offset="1"/>
</linearGradient>
</defs>
</svg>
